# xmcd CD database file
#
# Track frame offsets:
#	150
#	19825
#	38611
#	58718
#	79961
#	98820
#	113749
#	131220
#	146810
#	166554
#
# Disc length: 2340 seconds
#
# Revision: 0
# Processed by: cddbd v1.5.1PL2 Copyright (c) Steve Scherf et al.
# Submitted via: CDex 1.51
#
DISCID=8009220a
DTITLE=Carmela Cuneta - Endless Love 3 ~Summer Scent
DYEAR=2004
DGENRE=Ethnic
TTITLE0=Suko Na Ang Puso
TTITLE1=Alay Ko
TTITLE2=Tuwing Naaalala
TTITLE3=Pagbabalik
TTITLE4=Tanging Pangako
TTITLE5=I Know It Better Now
TTITLE6=Hindi Lalayo
TTITLE7=Summer Love
TTITLE8=Pinagtagpo
TTITLE9=Suko Na Ang Puso(Instrumental)
EXTD=YEAR: 2004
EXTT0=
EXTT1=
EXTT2=
EXTT3=
EXTT4=
EXTT5=
EXTT6=
EXTT7=
EXTT8=
EXTT9=
PLAYORDER=
